HIERARCHY
ROOT Hips
{
  OFFSET 179.979 97.3047 303.174
  CHANNELS 6 Xposition Yposition Zposition Zrotation Xrotation Yrotation
  JOINT Spine
  {
    OFFSET 0.000859786 9.92346 -1.22733
    CHANNELS 3 Zrotation Xrotation Yrotation
    JOINT Spine1
    {
      OFFSET 0 11.732 0
      CHANNELS 3 Zrotation Xrotation Yrotation
      JOINT Spine2
      {
        OFFSET 0 13.4588 0
        CHANNELS 3 Zrotation Xrotation Yrotation
        JOINT Neck
        {
          OFFSET 2.54812e-05 15.0278 0.877907
          CHANNELS 3 Zrotation Xrotation Yrotation
          JOINT Head
          {
            OFFSET 0 10.3218 3.14243
            CHANNELS 3 Zrotation Xrotation Yrotation
            End Site
            {
              OFFSET 0 0 0
            }
          }
        }
        JOINT LeftShoulder
        {
          OFFSET 6.10582 9.10629 0.757062
          CHANNELS 3 Zrotation Xrotation Yrotation
          JOINT LeftArm
          {
            OFFSET 0 12.9223 0
            CHANNELS 3 Zrotation Xrotation Yrotation
            JOINT LeftForeArm
            {
              OFFSET 0 27.4047 0
              CHANNELS 3 Zrotation Xrotation Yrotation
              JOINT LeftHand
              {
                OFFSET -1.28204e-05 27.6145 0
                CHANNELS 3 Zrotation Xrotation Yrotation
                End Site
                {
                  OFFSET 0 0 0
                }
              }
            }
          }
        }
        JOINT RightShoulder
        {
          OFFSET -6.1057 9.10638 0.757076
          CHANNELS 3 Zrotation Xrotation Yrotation
          JOINT RightArm
          {
            OFFSET 0 12.9223 0
            CHANNELS 3 Zrotation Xrotation Yrotation
            JOINT RightForeArm
            {
              OFFSET 0 27.4047 0
              CHANNELS 3 Zrotation Xrotation Yrotation
              JOINT RightHand
              {
                OFFSET 1.28428e-05 27.6145 1.44975e-05
                CHANNELS 3 Zrotation Xrotation Yrotation
                End Site
                {
                  OFFSET 0 0 0
                }
              }
            }
          }
        }
      }
    }
  }
  JOINT LeftUpLeg
  {
    OFFSET 9.12387 -6.65719 -0.0554031
    CHANNELS 3 Zrotation Xrotation Yrotation
    JOINT LeftLeg
    {
      OFFSET 0 40.5994 0
      CHANNELS 3 Zrotation Xrotation Yrotation
      JOINT LeftFoot
      {
        OFFSET 0 42.099 0
        CHANNELS 3 Zrotation Xrotation Yrotation
        JOINT LeftToeBase
        {
          OFFSET 0 15.7216 0
          CHANNELS 3 Zrotation Xrotation Yrotation
          End Site
          {
            OFFSET 0 0 0
          }
        }
      }
    }
  }
  JOINT RightUpLeg
  {
    OFFSET -9.12503 -6.6556 -0.0553527
    CHANNELS 3 Zrotation Xrotation Yrotation
    JOINT RightLeg
    {
      OFFSET 0 40.5994 0
      CHANNELS 3 Zrotation Xrotation Yrotation
      JOINT RightFoot
      {
        OFFSET 0 42.099 0
        CHANNELS 3 Zrotation Xrotation Yrotation
        JOINT RightToeBase
        {
          OFFSET 0 15.7216 0
          CHANNELS 3 Zrotation Xrotation Yrotation
          End Site
          {
            OFFSET 0 0 0
          }
        }
      }
    }
  }
}
MOTION
Frames:	6
Frame Time:	0.0333333
197.386 99.4903 -290.136 1.00916 -4.18726 -0.285673 -0.379279 -5.77329 0.020784 -0.693311 2.40404 0.111555 -0.70537 8.99851 0.112453 4.88385 20.5891 -2.24964 -2.89326 -15.2851 -0.132078 -86.5732 -19.2419 89.8811 22.33 -2.60016 -5.76444 2.50648 -13.3176 -0.514077 -8.79246 5.338 12.079 91.9293 -13.8833 -90.3945 -11.409 -0.283799 12.0706 -8.74505 -17.2279 0.716297 14.554 -5.8356 -16.4213 -178.183 -5.55165 -2.33291 -3.22263 -7.30708 -2.18313 10.1404 75.2495 -7.72374 -0.965275 26.367 -3.60229 177.575 -2.85047 -1.76315 2.54569 -13.9343 1.21657 -10 77.8286 6.58073 0.963536 26.3682 3.55537 
197.388 99.4903 -290.14 1.00868 -4.18726 -0.292122 -0.379279 -5.77329 0.020784 -0.693465 2.40628 0.115157 -0.70553 9.00078 0.116154 4.87934 20.5935 -2.23616 -2.90303 -15.3024 -0.118775 -86.5733 -19.2398 89.8809 22.3287 -2.59796 -5.74649 2.5056 -13.3214 -0.514085 -8.79046 5.35938 12.0698 91.9303 -13.877 -90.3943 -11.4037 -0.28383 12.0798 -8.72579 -17.2211 0.71627 14.554 -5.83272 -16.4289 -178.183 -5.55165 -2.33291 -3.22298 -7.30707 -2.18704 10.1523 75.2492 -7.73465 -0.965275 26.367 -3.60229 177.575 -2.84886 -1.76315 2.5447 -13.9319 1.21198 -9.98246 77.824 6.56427 0.963536 26.3682 3.55537 
197.396 99.4904 -290.161 1.0065 -4.18724 -0.322031 -0.379279 -5.77329 0.020784 -0.694221 2.41912 0.132625 -0.706311 9.01359 0.134086 4.85243 20.6119 -2.15672 -2.95474 -15.3602 -0.0383066 -86.5738 -19.2258 89.8797 22.2981 -2.6131 -5.64384 2.52106 -13.3325 -0.514109 -8.76676 5.40332 11.999 91.943 -13.8462 -90.3978 -11.3772 -0.284005 12.1321 -8.6115 -17.1762 0.716096 14.5618 -5.79665 -16.4542 -178.183 -5.54124 -2.33287 -3.2243 -7.30702 -2.20154 10.1983 75.2417 -7.77204 -0.965275 26.367 -3.60229 177.576 -2.83916 -1.76313 2.54106 -13.9204 1.19542 -9.91342 77.7992 6.49935 0.963536 26.3682 3.55537 
197.402 99.4905 -290.179 1.00579 -4.18724 -0.33175 -0.379279 -5.77329 0.020784 -0.694587 2.43171 0.140638 -0.706688 9.02618 0.142306 4.82701 20.6261 -2.08733 -3.00126 -15.3929 0.0290014 -86.5744 -19.2062 89.8781 22.2499 -2.63703 -5.57753 2.53805 -13.3512 -0.514149 -8.72203 5.37275 11.9492 91.9584 -13.816 -90.4015 -11.3357 -0.284022 12.1388 -8.5367 -17.1417 0.715963 14.5742 -5.73648 -16.4543 -178.183 -5.53647 -2.33285 -3.22468 -7.307 -2.20565 10.2135 75.2337 -7.78061 -0.965275 26.367 -3.60229 177.576 -2.82908 -1.76312 2.54097 -13.9185 1.19085 -9.88724 77.7822 6.47456 0.963536 26.3682 3.55537 
197.405 99.4906 -290.193 1.00701 -4.18725 -0.315103 -0.379279 -5.77329 0.020784 -0.694552 2.44013 0.139304 -0.706651 9.03459 0.140929 4.77984 20.668 -2.04244 -3.04241 -15.458 0.0610422 -86.575 -19.1884 89.8773 22.2133 -2.66309 -5.56517 2.53926 -13.3604 -0.514168 -8.66906 5.34572 11.9712 91.9654 -13.791 -90.4043 -11.2631 -0.287758 12.085 -8.5442 -17.1537 0.71601 14.5748 -5.66542 -16.4713 -178.182 -5.52569 -2.32777 -3.22414 -7.30702 -2.19973 10.199 75.225 -7.76169 -0.965275 26.367 -3.60229 177.576 -2.82306 -1.7549 2.54497 -13.9182 1.19589 -9.89291 77.7724 6.47959 0.963536 26.3682 3.55537 
197.408 99.4907 -290.203 1.00995 -4.18726 -0.274845 -0.379279 -5.77329 0.020784 -0.694283 2.44122 0.132883 -0.706371 9.0357 0.134283 4.71826 20.746 -2.01595 -3.07537 -15.5412 0.0677211 -86.5688 -19.1719 89.8789 22.1973 -2.69331 -5.58939 2.5343 -13.3455 -0.514137 -8.64678 5.32847 12.0345 91.9649 -13.7844 -90.4042 -11.1814 -0.294545 12.026 -8.60898 -17.2191 0.716262 14.5428 -5.65368 -16.5299 -178.179 -5.50799 -2.30154 -3.22349 -7.30705 -2.19264 10.1741 75.2157 -7.73374 -0.965275 26.367 -3.60229 177.574 -2.81739 -1.7346 2.55122 -13.9144 1.20798 -9.92214 77.767 6.50667 0.963536 26.3682 3.55537 
